<svg width="640" height="200" viewBox="0 0 640 200" fill="none" xmlns="http://www.w3.org/2000/svg">
<path d="M613.974 61.256L614.176 60.8923L613.855 60.6275L610.202 57.6143L609.79 57.2736L609.478 57.7089C606.246 62.2209 603.106 66.8851 600.058 71.7014C597.013 76.4511 594.273 80.8058 591.836 84.7653L591.835 84.7672C589.459 88.6651 587.539 91.8957 586.075 94.458C585.345 95.736 584.79 96.7011 584.411 97.3538C584.221 97.6804 584.076 97.9272 583.975 98.0954C583.924 98.1799 583.886 98.2421 583.86 98.2837C583.854 98.2931 583.849 98.3008 583.845 98.3071L583.473 98.6793L583.92 99.027L587.207 101.584L588.014 102.211V101.284C588.015 101.281 588.016 101.279 588.018 101.276C588.051 101.209 588.104 101.11 588.179 100.975C588.328 100.707 588.553 100.317 588.856 99.8025C589.526 98.706 590.347 97.3375 591.319 95.6972C592.354 94.0536 593.479 92.2284 594.695 90.2218C595.972 88.2151 597.219 86.2387 598.435 84.2926C599.712 82.3473 600.897 80.5542 601.991 78.9131C602.715 77.8267 603.368 76.9223 603.948 76.196C603.979 76.7466 604.026 77.4514 604.09 78.3074L604.091 78.3177L604.092 78.3278C604.274 79.9037 604.456 81.7852 604.638 83.9732L604.638 83.9743C604.82 86.0986 604.972 88.3451 605.093 90.7141L605.093 90.7141L605.094 90.7268C605.276 93.0908 605.367 95.2387 605.367 97.1714C605.367 99.099 605.246 101.243 605.004 103.603C604.763 105.953 604.341 108.365 603.737 110.841L603.737 110.84L603.735 110.852C603.193 113.318 602.441 115.725 601.479 118.072C600.52 120.348 599.354 122.38 597.983 124.168C596.62 125.946 595.023 127.395 593.193 128.517C591.392 129.562 589.321 130.09 586.966 130.09C585.192 130.09 583.752 129.794 582.624 129.23L582.624 129.23L582.615 129.226C581.377 128.636 580.431 127.97 579.755 127.238C579.056 126.481 578.578 125.742 578.302 125.024L578.298 125.015L578.295 125.006C577.927 124.149 577.787 123.627 577.787 123.377V122.77L577.192 122.886L573.905 123.525L573.426 123.618L573.507 124.099C574.256 128.532 576.266 131.888 579.56 134.106C582.764 136.366 586.703 137.482 591.349 137.482C596.533 137.482 601.444 136.401 606.076 134.24C610.684 132.151 614.983 129.418 618.973 126.041L618.976 126.038C622.958 122.608 626.603 118.78 629.909 114.554C633.269 110.279 636.263 105.971 638.892 101.631L639.108 101.273L638.795 100.997L635.69 98.2574L635.249 97.8681L634.936 98.3664C630.323 105.711 625.747 111.77 621.21 116.549C617.356 120.556 613.446 123.77 609.479 126.195C611.152 123.774 612.539 121.002 613.643 117.883C615.066 113.862 615.771 109.238 615.771 104.02C615.771 100.459 615.434 97.0184 614.758 93.6984C614.148 90.3425 613.476 87.258 612.742 84.4455C612.011 81.5823 611.31 79.0509 610.638 76.8522C610.035 74.6791 609.745 72.9974 609.745 71.7876C609.745 70.3026 609.893 69.0452 610.18 68.0073C610.537 66.9394 610.919 66.0295 611.326 65.2733C611.802 64.4405 612.274 63.7345 612.74 63.1517L612.747 63.1427L612.754 63.1334C613.249 62.4523 613.657 61.8262 613.974 61.256ZM583.829 98.3305C583.829 98.3306 583.83 98.3284 583.833 98.3246C583.83 98.3287 583.829 98.3305 583.829 98.3305Z" stroke="white"/>
<path d="M531.196 68.4756H545.512C542.092 74.7846 539.236 80.7024 536.943 86.2283L536.941 86.2325C534.624 91.9645 532.762 97.1529 531.357 101.797C529.953 106.373 528.973 110.351 528.42 113.727C527.811 117.082 527.5 119.703 527.5 121.574C527.5 124.415 527.87 127.051 528.616 129.476C529.302 131.906 530.365 134.034 531.808 135.855L531.808 135.855L531.814 135.861C533.26 137.622 535.022 139.006 537.095 140.011L537.101 140.014C539.249 141.025 541.728 141.522 544.527 141.522C549.057 141.522 553.282 140.404 557.193 138.17L557.198 138.166C561.074 135.89 564.64 133.061 567.897 129.682C571.204 126.252 574.205 122.547 576.899 118.567C579.581 114.604 581.991 110.853 584.126 107.314L584.359 106.929L584 106.657L580.622 104.1L580.168 103.757L579.886 104.251C579.648 104.667 578.985 105.753 577.888 107.519C576.8 109.211 575.408 111.21 573.708 113.516L573.708 113.516L573.703 113.523C572.069 115.823 570.16 118.278 567.975 120.887L567.971 120.893C565.856 123.491 563.591 125.877 561.176 128.05L561.171 128.054C558.822 130.223 556.417 132.026 553.957 133.467C551.522 134.832 549.172 135.5 546.901 135.5C544.341 135.5 542.215 134.691 540.489 133.082C538.805 131.451 537.905 128.754 537.905 124.861C537.905 121.747 538.414 118.075 539.443 113.839L539.443 113.838C540.473 109.538 541.897 104.931 543.717 100.016C545.54 95.0961 547.636 89.9316 550.006 84.5226C552.397 79.2032 554.934 73.8542 557.619 68.4756H587.716H588.059L588.182 68.1551L590.009 63.407L590.27 62.7275H589.542H560.598C563.15 57.8191 565.73 53.0768 568.336 48.5004L568.338 48.4981C571.075 43.6325 573.75 39.0413 576.365 34.7243L576.625 34.2949L576.194 34.0366L572.085 31.5713L571.764 31.3786L571.489 31.6326C569.092 33.8456 566.639 36.5444 564.131 39.7256L564.13 39.7266C561.689 42.839 559.4 45.9521 557.263 49.0657L557.263 49.0657L557.259 49.0713C555.187 52.1794 553.358 55.0148 551.772 57.5772L551.772 57.5771L551.767 57.5846C550.36 59.9491 549.342 61.6636 548.715 62.7275H533.022H532.679L532.555 63.048L530.729 67.7961L530.468 68.4756H531.196Z" stroke="white"/>
<mask id="path-3-outside-1_11_13" maskUnits="userSpaceOnUse" x="402" y="3" width="127" height="197" fill="black">
<rect fill="white" x="402" y="3" width="127" height="197"/>
<path d="M510.648 81.3384C509.796 82.9211 508.67 85.0212 507.27 87.6387C505.87 90.1953 504.348 93.0259 502.705 96.1304C501.061 99.174 499.387 102.4 497.683 105.809C495.978 109.157 494.456 112.444 493.117 115.67C491.778 118.836 490.652 121.819 489.739 124.619C488.887 127.419 488.46 129.793 488.46 131.741C488.46 133.506 488.826 134.723 489.556 135.393C490.287 136.002 491.321 136.306 492.661 136.306C495.156 136.306 497.591 135.484 499.965 133.841C502.339 132.197 504.683 130.067 506.996 127.449C509.37 124.771 511.683 121.727 513.936 118.318C516.188 114.91 518.44 111.47 520.692 108L523.979 110.557C522.214 113.722 520.205 117.101 517.953 120.692C515.762 124.284 513.296 127.632 510.557 130.736C507.818 133.78 504.805 136.306 501.518 138.315C498.23 140.324 494.639 141.328 490.743 141.328C487.091 141.328 484.291 140.232 482.343 138.041C480.395 135.85 479.421 133.019 479.421 129.549C479.421 128.758 479.451 127.967 479.512 127.175C479.634 126.384 479.756 125.562 479.877 124.71C477.869 127.023 475.647 129.245 473.212 131.375C470.838 133.506 468.251 135.424 465.451 137.128C462.651 138.771 459.698 140.111 456.594 141.146C453.489 142.119 450.233 142.606 446.824 142.606C445.119 142.606 443.445 142.424 441.802 142.059C440.219 141.632 438.667 140.993 437.145 140.141C435.136 145.072 433.188 149.911 431.301 154.659C429.353 159.407 427.527 163.912 425.823 168.173C424.057 172.434 422.444 176.36 420.983 179.952C419.522 183.543 418.244 186.648 417.148 189.265C416.053 191.944 415.201 194.044 414.592 195.565C413.983 197.148 413.648 197.97 413.587 198.031L404 193.283C407.104 185.978 409.905 179.282 412.4 173.195C414.835 167.108 417.118 161.416 419.249 156.12C421.318 150.824 423.297 145.863 425.184 141.237C427.01 136.55 428.866 132.015 430.753 127.632C429.779 126.232 429.079 124.862 428.653 123.523C428.166 122.184 427.862 121.088 427.74 120.236C427.618 118.836 428.014 117.679 428.927 116.766C429.779 115.792 430.906 115.305 432.306 115.305C433.462 115.305 434.528 115.701 435.501 116.492C437.328 112.109 438.941 108.274 440.341 104.987C441.802 101.639 443.019 98.8392 443.993 96.5869C445.089 93.9694 446.063 91.6867 446.915 89.7388C452.211 77.2599 457.111 66.4855 461.616 57.4155C466.181 48.2847 470.381 40.5539 474.216 34.2231C478.051 27.8315 481.551 22.6878 484.717 18.792C487.882 14.8353 490.743 11.7612 493.3 9.56982C495.917 7.37842 498.261 5.91748 500.331 5.18701C502.4 4.39567 504.257 4 505.9 4C508.579 4 510.831 4.60872 512.657 5.82617C514.544 6.98275 515.61 8.99154 515.853 11.8525C516.097 14.6527 515.579 18.1833 514.301 22.4443C513.083 26.7054 511.379 31.2404 509.188 36.0493C507.057 40.7974 504.561 45.6063 501.7 50.4761C498.839 55.3459 495.917 59.82 492.935 63.8984C487.273 71.5684 482.13 77.9295 477.503 82.9819C472.938 88.0343 468.92 92.1128 465.451 95.2173C461.981 98.3218 459.09 100.635 456.776 102.157C454.463 103.618 452.759 104.622 451.663 105.17L438.971 135.576C440.919 137.097 443.506 137.858 446.732 137.858C451.724 137.858 456.289 136.793 460.429 134.663C464.629 132.471 468.373 129.854 471.66 126.81C474.947 123.766 477.777 120.632 480.151 117.405C482.586 114.118 484.504 111.379 485.904 109.188C487.426 106.509 489.1 103.861 490.926 101.244C492.752 98.6261 494.609 96.0999 496.496 93.665C498.444 91.1693 500.361 88.7952 502.248 86.543C504.196 84.2298 506.022 82.0688 507.727 80.0601L510.648 81.3384ZM510.192 13.2222C510.131 12.1873 509.888 11.3047 509.461 10.5742C509.096 9.78288 508.305 9.38721 507.087 9.38721C506.357 9.38721 505.413 9.56982 504.257 9.93506C503.1 10.2394 501.731 10.9395 500.148 12.0352C498.626 13.1309 496.891 14.744 494.943 16.8745C492.995 19.005 490.804 21.866 488.369 25.4575C485.995 29.049 483.378 33.4927 480.517 38.7886C477.716 44.0845 474.703 50.4761 471.477 57.9634C469.347 62.7114 466.881 68.4943 464.081 75.312C461.281 82.0688 458.207 89.404 454.859 97.3174C457.72 95.3086 460.703 92.8128 463.807 89.8301C466.972 86.7865 470.138 83.4689 473.303 79.8774C476.529 76.2251 479.695 72.3597 482.799 68.2812C485.904 64.2028 488.856 60.0635 491.656 55.8633C494.456 51.6631 497.013 47.4933 499.326 43.354C501.7 39.2147 503.709 35.2884 505.353 31.5752C507.057 27.8011 508.335 24.3618 509.188 21.2573C510.04 18.092 510.375 15.4136 510.192 13.2222ZM527.723 61.0679C527.723 62.2853 527.419 63.5636 526.81 64.9028C526.201 66.1812 525.41 67.3377 524.436 68.3726C523.523 69.4074 522.488 70.2596 521.332 70.9292C520.175 71.5988 519.018 71.9336 517.862 71.9336C516.827 71.9336 516.036 71.5684 515.488 70.8379C514.94 70.0465 514.666 69.103 514.666 68.0073C514.666 67.0334 514.849 65.8768 515.214 64.5376C515.579 63.1984 516.127 61.9505 516.857 60.7939C517.588 59.5765 518.471 58.5417 519.505 57.6895C520.54 56.8372 521.727 56.4111 523.066 56.4111C524.345 56.4111 525.44 56.8981 526.354 57.8721C527.267 58.846 527.723 59.9113 527.723 61.0679Z"/>
</mask>
<path d="M510.648 81.3384C509.796 82.9211 508.67 85.0212 507.27 87.6387C505.87 90.1953 504.348 93.0259 502.705 96.1304C501.061 99.174 499.387 102.4 497.683 105.809C495.978 109.157 494.456 112.444 493.117 115.67C491.778 118.836 490.652 121.819 489.739 124.619C488.887 127.419 488.46 129.793 488.46 131.741C488.46 133.506 488.826 134.723 489.556 135.393C490.287 136.002 491.321 136.306 492.661 136.306C495.156 136.306 497.591 135.484 499.965 133.841C502.339 132.197 504.683 130.067 506.996 127.449C509.37 124.771 511.683 121.727 513.936 118.318C516.188 114.91 518.44 111.47 520.692 108L523.979 110.557C522.214 113.722 520.205 117.101 517.953 120.692C515.762 124.284 513.296 127.632 510.557 130.736C507.818 133.78 504.805 136.306 501.518 138.315C498.23 140.324 494.639 141.328 490.743 141.328C487.091 141.328 484.291 140.232 482.343 138.041C480.395 135.85 479.421 133.019 479.421 129.549C479.421 128.758 479.451 127.967 479.512 127.175C479.634 126.384 479.756 125.562 479.877 124.71C477.869 127.023 475.647 129.245 473.212 131.375C470.838 133.506 468.251 135.424 465.451 137.128C462.651 138.771 459.698 140.111 456.594 141.146C453.489 142.119 450.233 142.606 446.824 142.606C445.119 142.606 443.445 142.424 441.802 142.059C440.219 141.632 438.667 140.993 437.145 140.141C435.136 145.072 433.188 149.911 431.301 154.659C429.353 159.407 427.527 163.912 425.823 168.173C424.057 172.434 422.444 176.36 420.983 179.952C419.522 183.543 418.244 186.648 417.148 189.265C416.053 191.944 415.201 194.044 414.592 195.565C413.983 197.148 413.648 197.97 413.587 198.031L404 193.283C407.104 185.978 409.905 179.282 412.4 173.195C414.835 167.108 417.118 161.416 419.249 156.12C421.318 150.824 423.297 145.863 425.184 141.237C427.01 136.55 428.866 132.015 430.753 127.632C429.779 126.232 429.079 124.862 428.653 123.523C428.166 122.184 427.862 121.088 427.74 120.236C427.618 118.836 428.014 117.679 428.927 116.766C429.779 115.792 430.906 115.305 432.306 115.305C433.462 115.305 434.528 115.701 435.501 116.492C437.328 112.109 438.941 108.274 440.341 104.987C441.802 101.639 443.019 98.8392 443.993 96.5869C445.089 93.9694 446.063 91.6867 446.915 89.7388C452.211 77.2599 457.111 66.4855 461.616 57.4155C466.181 48.2847 470.381 40.5539 474.216 34.2231C478.051 27.8315 481.551 22.6878 484.717 18.792C487.882 14.8353 490.743 11.7612 493.3 9.56982C495.917 7.37842 498.261 5.91748 500.331 5.18701C502.4 4.39567 504.257 4 505.9 4C508.579 4 510.831 4.60872 512.657 5.82617C514.544 6.98275 515.61 8.99154 515.853 11.8525C516.097 14.6527 515.579 18.1833 514.301 22.4443C513.083 26.7054 511.379 31.2404 509.188 36.0493C507.057 40.7974 504.561 45.6063 501.7 50.4761C498.839 55.3459 495.917 59.82 492.935 63.8984C487.273 71.5684 482.13 77.9295 477.503 82.9819C472.938 88.0343 468.92 92.1128 465.451 95.2173C461.981 98.3218 459.09 100.635 456.776 102.157C454.463 103.618 452.759 104.622 451.663 105.17L438.971 135.576C440.919 137.097 443.506 137.858 446.732 137.858C451.724 137.858 456.289 136.793 460.429 134.663C464.629 132.471 468.373 129.854 471.66 126.81C474.947 123.766 477.777 120.632 480.151 117.405C482.586 114.118 484.504 111.379 485.904 109.188C487.426 106.509 489.1 103.861 490.926 101.244C492.752 98.6261 494.609 96.0999 496.496 93.665C498.444 91.1693 500.361 88.7952 502.248 86.543C504.196 84.2298 506.022 82.0688 507.727 80.0601L510.648 81.3384ZM510.192 13.2222C510.131 12.1873 509.888 11.3047 509.461 10.5742C509.096 9.78288 508.305 9.38721 507.087 9.38721C506.357 9.38721 505.413 9.56982 504.257 9.93506C503.1 10.2394 501.731 10.9395 500.148 12.0352C498.626 13.1309 496.891 14.744 494.943 16.8745C492.995 19.005 490.804 21.866 488.369 25.4575C485.995 29.049 483.378 33.4927 480.517 38.7886C477.716 44.0845 474.703 50.4761 471.477 57.9634C469.347 62.7114 466.881 68.4943 464.081 75.312C461.281 82.0688 458.207 89.404 454.859 97.3174C457.72 95.3086 460.703 92.8128 463.807 89.8301C466.972 86.7865 470.138 83.4689 473.303 79.8774C476.529 76.2251 479.695 72.3597 482.799 68.2812C485.904 64.2028 488.856 60.0635 491.656 55.8633C494.456 51.6631 497.013 47.4933 499.326 43.354C501.7 39.2147 503.709 35.2884 505.353 31.5752C507.057 27.8011 508.335 24.3618 509.188 21.2573C510.04 18.092 510.375 15.4136 510.192 13.2222ZM527.723 61.0679C527.723 62.2853 527.419 63.5636 526.81 64.9028C526.201 66.1812 525.41 67.3377 524.436 68.3726C523.523 69.4074 522.488 70.2596 521.332 70.9292C520.175 71.5988 519.018 71.9336 517.862 71.9336C516.827 71.9336 516.036 71.5684 515.488 70.8379C514.94 70.0465 514.666 69.103 514.666 68.0073C514.666 67.0334 514.849 65.8768 515.214 64.5376C515.579 63.1984 516.127 61.9505 516.857 60.7939C517.588 59.5765 518.471 58.5417 519.505 57.6895C520.54 56.8372 521.727 56.4111 523.066 56.4111C524.345 56.4111 525.44 56.8981 526.354 57.8721C527.267 58.846 527.723 59.9113 527.723 61.0679Z" stroke="white" stroke-width="2" mask="url(#path-3-outside-1_11_13)"/>
<path d="M424.182 101.405L423.74 101.015L423.427 101.514C416.08 113.233 408.724 121.759 401.368 127.125C394.014 132.49 386.415 135.155 378.562 135.155C376.25 135.155 374.192 134.741 372.379 133.923C370.618 133.1 369.126 131.988 367.897 130.586C366.723 129.116 365.809 127.438 365.159 125.549C364.567 123.592 364.27 121.544 364.27 119.402C364.27 118.686 364.3 117.969 364.36 117.252C364.408 116.672 364.476 116.091 364.564 115.51C367.762 115.421 371.125 114.994 374.65 114.23C378.327 113.433 381.972 112.361 385.585 111.014C389.202 109.665 392.666 108.041 395.977 106.14L395.977 106.14L395.983 106.136C399.299 104.171 402.221 101.988 404.747 99.5854L404.747 99.5855L404.752 99.581C407.281 97.1136 409.292 94.4548 410.78 91.6038C412.339 88.6713 413.12 85.5477 413.12 82.2397C413.12 79.8097 412.684 77.6924 411.792 75.905C410.972 74.1409 409.862 72.7082 408.456 71.621C407.126 70.5449 405.607 69.7553 403.905 69.2511C402.219 68.7516 400.558 68.5 398.924 68.5C396.41 68.5 393.548 69.1275 390.348 70.358C387.145 71.5288 383.857 73.1893 380.485 75.335L380.485 75.335L380.481 75.3373C377.167 77.4858 373.887 80.0917 370.642 83.1527C367.389 86.1606 364.504 89.5062 361.988 93.1886C359.468 96.8759 357.44 100.87 355.905 105.169C354.301 109.425 353.5 113.866 353.5 118.489C353.5 122.811 354.333 126.463 356.03 129.418C357.645 132.337 359.703 134.679 362.205 136.43L362.21 136.433C364.754 138.171 367.517 139.413 370.497 140.158C373.453 140.897 376.263 141.269 378.927 141.269C382.578 141.269 386.405 140.619 390.403 139.327C394.415 138.031 398.477 135.936 402.588 133.052C406.764 130.166 410.932 126.425 415.091 121.838L415.093 121.836C419.258 117.181 423.354 111.493 427.384 104.776L427.598 104.419L427.286 104.144L424.182 101.405ZM393.837 97.3948L393.837 97.3948L393.832 97.3992C391.545 99.5653 388.925 101.584 385.968 103.455C383.018 105.261 379.763 106.798 376.203 108.066C372.884 109.247 369.351 110.061 365.604 110.508C367.38 105.591 369.648 100.977 372.408 96.6641C375.374 92.1241 378.518 88.1958 381.837 84.876L381.841 84.8728C385.163 81.4897 388.475 78.8734 391.773 77.0142L391.773 77.0142L391.779 77.0108C395.083 75.0887 398.008 74.1567 400.567 74.1567C401.631 74.1567 402.532 74.5737 403.296 75.4469L403.301 75.4534L403.307 75.4596C404.114 76.3206 404.542 77.4966 404.542 79.0439C404.542 80.6032 404.137 82.3936 403.301 84.4234C402.466 86.4521 401.268 88.5806 399.702 90.8092C398.143 93.0279 396.189 95.2234 393.837 97.3948Z" stroke="white"/>
<path d="M332.352 91.9159L332.351 91.9192C331.429 94.6221 330.263 97.353 328.853 100.112L328.851 100.116C327.446 102.804 325.949 105.461 324.361 108.087C322.781 110.701 321.291 113.225 319.893 115.656C318.503 118.074 317.356 120.397 316.453 122.625L316.451 122.63C315.556 124.778 315.12 126.72 315.12 128.464C315.12 129.827 315.423 130.566 315.846 130.904C316.372 131.325 316.933 131.525 317.542 131.525C319.694 131.525 322.172 130.475 324.991 128.256C327.822 125.967 330.69 123.1 333.595 119.65L333.598 119.646C336.571 116.189 339.514 112.426 342.428 108.359C345.346 104.285 347.99 100.426 350.359 96.7812L350.656 96.3249L351.085 96.659L354.372 99.2157L354.739 99.501L354.481 99.8877C354.004 100.604 353.129 102.052 351.849 104.245L351.846 104.25C350.562 106.391 348.974 108.864 347.084 111.669L347.081 111.673C345.188 114.421 343.052 117.32 340.673 120.37C340.673 120.37 340.672 120.371 340.672 120.371L340.278 120.063C337.965 123.046 335.469 125.816 332.791 128.373L332.352 91.9159ZM332.352 91.9159C333.28 89.1309 333.747 86.3992 333.747 83.7227C333.747 80.4563 333.256 77.7591 332.24 75.6601C331.306 73.5448 330.141 71.8674 328.735 70.6524C327.346 69.4535 325.852 68.6234 324.251 68.1753C322.7 67.741 321.314 67.5176 320.099 67.5176C318.708 67.5176 317.173 67.7387 315.499 68.1727C313.81 68.6107 311.979 69.3572 310.008 70.4037C308.03 71.3935 305.876 72.7484 303.549 74.4632C301.541 75.9431 299.401 77.7596 297.131 79.9105C297.314 78.7183 297.406 77.554 297.406 76.418C297.406 74.3649 297.126 72.5402 296.555 70.9527C295.989 69.3806 295.198 68.0446 294.176 66.9554C293.217 65.8076 292.062 64.9418 290.716 64.364C289.435 63.7882 288.088 63.5 286.68 63.5C284.066 63.5 281.591 64.3628 279.264 66.0607C277.026 67.6769 274.713 69.9636 272.321 72.9069L272.321 72.9068L272.317 72.9118C269.99 75.8515 267.545 79.3673 264.981 83.4571L264.98 83.4588C262.486 87.4744 259.686 91.9164 256.583 96.7849L256.338 97.1689L256.697 97.4484L259.985 100.005L260.409 100.335L260.708 99.8877C261.564 98.6026 262.633 96.9232 263.913 94.8511C265.19 92.783 266.559 90.5931 268.019 88.2812C269.476 85.9738 270.994 83.6662 272.573 81.3584C274.208 78.9969 275.81 76.9118 277.379 75.1019L277.379 75.1019L277.384 75.0957C278.951 73.2269 280.449 71.7311 281.877 70.601L281.879 70.5994C283.367 69.4085 284.596 68.8828 285.584 68.8828C286.599 68.8828 287.317 69.1356 287.806 69.5762L287.817 69.586L287.828 69.595C288.024 69.7516 288.209 70.0328 288.345 70.5061C288.48 70.9782 288.554 71.6049 288.554 72.4004C288.554 73.7953 288.232 75.6927 287.568 78.1102C286.909 80.443 285.707 83.4249 283.948 87.0631C282.734 89.4911 281.429 91.9803 280.032 94.5308C278.636 97.0794 277.15 99.6284 275.571 102.178L275.57 102.181C274.051 104.671 272.503 107.1 270.924 109.468C269.345 111.837 267.797 114.052 266.28 116.115L266.279 116.117L255.596 130.818L255.221 131.333L255.811 131.575L263.846 134.862L264.192 135.003L264.426 134.711C265.162 133.79 265.989 132.689 266.904 131.407C267.814 130.193 268.786 128.918 269.818 127.583L269.818 127.583L269.824 127.574L271.377 125.474L272.929 123.374C273.962 121.977 274.994 120.61 276.027 119.274L276.029 119.271C278.403 116.166 280.839 112.938 283.336 109.59C287.715 103.812 291.758 98.674 295.466 94.1762C299.232 89.6201 302.69 85.799 305.839 82.71C308.99 79.6204 311.821 77.3038 314.335 75.7474L314.335 75.7475L314.343 75.7429C316.86 74.1244 319.017 73.3569 320.829 73.3569C322.523 73.3569 323.766 73.9413 324.632 75.0774L324.636 75.0833L324.641 75.089C325.593 76.2654 326.082 77.7322 326.082 79.5225C326.082 81.0622 325.566 82.9637 324.486 85.2435L324.484 85.2488C323.458 87.4821 322.157 89.932 320.581 92.5992C319.002 95.272 317.27 98.0976 315.386 101.076C313.493 104.007 311.752 106.94 310.163 109.873C308.571 112.811 307.223 115.69 306.119 118.512L306.119 118.512L306.117 118.517C305.066 121.3 304.533 123.917 304.533 126.364C304.533 127.889 304.819 129.353 305.392 130.753L305.392 130.753L305.395 130.761C305.965 132.09 306.727 133.266 307.681 134.284L307.687 134.29L307.692 134.296C308.716 135.319 309.929 136.116 311.326 136.688C312.733 137.263 314.29 137.547 315.99 137.547C318.95 137.547 321.867 136.696 324.732 135.014L332.352 91.9159Z" stroke="white"/>
<path d="M252.812 101.567L252.371 101.177L252.058 101.676C244.711 113.395 237.355 121.921 229.999 127.287C222.644 132.652 215.045 135.317 207.192 135.317C204.88 135.317 202.822 134.903 201.009 134.085C199.248 133.262 197.756 132.15 196.528 130.748C195.353 129.278 194.44 127.6 193.789 125.711C193.197 123.754 192.9 121.706 192.9 119.564C192.9 118.848 192.93 118.131 192.99 117.415C193.038 116.834 193.106 116.253 193.194 115.672C196.393 115.583 199.755 115.156 203.281 114.392C206.957 113.595 210.602 112.523 214.215 111.176C217.832 109.827 221.296 108.203 224.607 106.302L224.607 106.302L224.613 106.298C227.929 104.333 230.852 102.15 233.377 99.7475L233.377 99.7476L233.382 99.7431C235.911 97.2757 237.922 94.6169 239.41 91.766C240.97 88.8335 241.75 85.7098 241.75 82.4019C241.75 79.9718 241.315 77.8545 240.423 76.0671C239.602 74.303 238.492 72.8703 237.087 71.7831C235.756 70.7071 234.237 69.9174 232.536 69.4132C230.85 68.9137 229.189 68.6621 227.554 68.6621C225.04 68.6621 222.178 69.2896 218.978 70.5201C215.775 71.6909 212.487 73.3514 209.115 75.4971L209.115 75.4971L209.112 75.4994C205.797 77.6479 202.517 80.2538 199.272 83.3148C196.019 86.3228 193.134 89.6683 190.618 93.3507C188.098 97.038 186.071 101.032 184.535 105.331C182.932 109.587 182.13 114.028 182.13 118.651C182.13 122.973 182.963 126.625 184.66 129.58C186.276 132.499 188.333 134.841 190.835 136.592L190.84 136.596C193.385 138.333 196.148 139.575 199.127 140.32C202.083 141.059 204.894 141.431 207.558 141.431C211.209 141.431 215.035 140.781 219.034 139.489C223.046 138.193 227.107 136.098 231.218 133.214C235.395 130.328 239.562 126.588 243.721 122L243.723 121.998C247.888 117.343 251.985 111.655 256.015 104.938L256.229 104.582L255.917 104.306L252.812 101.567ZM222.467 97.5569L222.467 97.5569L222.462 97.5613C220.176 99.7274 217.555 101.746 214.598 103.617C211.648 105.423 208.394 106.96 204.833 108.228C201.514 109.409 197.982 110.224 194.235 110.67C196.01 105.753 198.278 101.139 201.038 96.8262C204.004 92.2862 207.148 88.3579 210.468 85.0381L210.471 85.0349C213.794 81.6518 217.105 79.0355 220.404 77.1763L220.404 77.1763L220.41 77.1729C223.713 75.2508 226.639 74.3188 229.198 74.3188C230.261 74.3188 231.162 74.7358 231.926 75.609L231.932 75.6155L231.937 75.6218C232.745 76.4827 233.172 77.6587 233.172 79.2061C233.172 80.7653 232.767 82.5557 231.931 84.5855C231.096 86.6142 229.898 88.7427 228.332 90.9713C226.773 93.19 224.819 95.3856 222.467 97.5569Z" stroke="white"/>
<mask id="path-7-outside-2_11_13" maskUnits="userSpaceOnUse" x="0.56543" y="-0.497559" width="175" height="155" fill="black">
<rect fill="white" x="0.56543" y="-0.497559" width="175" height="155"/>
<path d="M150.49 4.69824C149.516 5.91569 148.572 7.1027 147.659 8.25928C146.807 9.35498 145.955 10.5116 145.103 11.729C151.251 13.9813 156.212 16.7814 159.986 20.1294C163.76 23.4165 166.682 26.8862 168.751 30.5386C170.821 34.13 172.191 37.6911 172.86 41.2217C173.591 44.6914 173.956 47.7046 173.956 50.2612C173.956 53.8527 173.347 57.292 172.13 60.5791C170.973 63.8053 169.391 66.7576 167.382 69.436C165.434 72.1144 163.151 74.458 160.534 76.4668C157.916 78.4147 155.177 79.9061 152.316 80.9409C158.221 85.8107 162.603 91.2284 165.464 97.1938C168.386 103.159 169.847 109.186 169.847 115.273C169.847 120.386 168.782 125.226 166.651 129.791C164.582 134.356 161.751 138.344 158.16 141.752C154.568 145.161 150.307 147.87 145.376 149.879C140.507 151.888 135.302 152.892 129.763 152.892C124.954 152.892 120.51 152.101 116.432 150.518C112.414 148.996 108.792 146.896 105.566 144.218C102.401 141.539 99.6309 138.374 97.2568 134.722C94.9437 131.069 93.1175 127.174 91.7783 123.034L96.3438 121.665C98.596 128.969 102.309 134.6 107.483 138.557C112.658 142.574 118.897 144.583 126.202 144.583C130.706 144.583 134.998 143.731 139.076 142.026C143.215 140.383 146.837 138.131 149.942 135.27C153.046 132.348 155.512 128.939 157.338 125.043C159.164 121.086 160.077 116.825 160.077 112.26C160.077 109.155 159.651 106.203 158.799 103.403C157.947 100.603 156.82 97.9548 155.42 95.459C154.02 92.9632 152.438 90.6805 150.672 88.6108C148.968 86.4803 147.203 84.5933 145.376 82.9497C143.733 83.2541 142.089 83.4976 140.446 83.6802C138.802 83.8628 137.189 83.9541 135.606 83.9541C133.415 83.9541 131.163 83.8019 128.85 83.4976C126.597 83.1323 124.528 82.6149 122.641 81.9453C120.814 81.2757 119.293 80.3931 118.075 79.2974C116.919 78.2017 116.34 76.8625 116.34 75.2798C116.34 74.9146 116.432 74.3971 116.614 73.7275C116.797 72.9971 117.162 72.297 117.71 71.6274C118.319 70.9578 119.201 70.3796 120.358 69.8926C121.514 69.3447 123.097 69.0708 125.106 69.0708C126.993 69.0708 128.88 69.2839 130.767 69.71C132.715 70.1361 134.572 70.7144 136.337 71.4448C138.102 72.1144 139.807 72.9058 141.45 73.8188C143.094 74.6711 144.585 75.5537 145.924 76.4668C148.116 75.4928 150.307 74.1841 152.499 72.5405C154.751 70.8361 156.79 68.7664 158.616 66.3315C160.442 63.8966 161.934 61.0965 163.09 57.9312C164.247 54.7658 164.825 51.2048 164.825 47.248C164.825 40.3086 162.908 34.0692 159.073 28.5298C155.238 22.9904 149.546 18.7598 141.998 15.8379C138.346 20.9512 134.937 26.034 131.771 31.0864C128.606 36.1388 125.654 41.1912 122.915 46.2437C120.175 51.2961 117.588 56.3485 115.153 61.4009C112.779 66.4533 110.497 71.5666 108.305 76.7407C103.253 88.55 98.3221 98.6548 93.5132 107.055C88.7043 115.395 83.5605 122.212 78.082 127.508C72.6644 132.804 66.7293 136.67 60.2769 139.104C53.8853 141.6 46.5501 142.848 38.2715 142.848C31.8799 142.848 26.3709 141.783 21.7446 139.652C17.1183 137.583 13.3138 134.722 10.3311 131.069C7.34831 127.417 5.12646 123.186 3.66553 118.377C2.26546 113.508 1.56543 108.333 1.56543 102.855C1.56543 96.7677 2.53939 90.4979 4.4873 84.0454C6.43522 77.5321 9.32666 71.0492 13.1616 64.5967C15.5965 60.5182 18.6097 56.2876 22.2012 51.9048C25.7926 47.4611 29.9015 43.1087 34.5278 38.8477C39.1541 34.5257 44.2979 30.4473 49.959 26.6123C55.681 22.7165 61.8291 19.3381 68.4033 16.4771C75.0384 13.5552 82.0996 11.242 89.5869 9.5376C97.1351 7.7723 105.079 6.88965 113.418 6.88965C118.532 6.88965 123.188 7.16357 127.389 7.71143C131.65 8.1984 135.576 8.92887 139.167 9.90283C140.568 8.50277 141.968 7.1027 143.368 5.70264C144.829 4.30257 146.32 2.90251 147.842 1.50244L150.49 4.69824ZM114.149 42.5913C117.375 37.2345 120.723 32.2126 124.193 27.5254C127.723 22.7773 131.498 18.2119 135.515 13.8291C133.202 13.2812 130.737 12.8551 128.119 12.5508C125.562 12.2464 122.854 12.0942 119.993 12.0942C110.801 12.0942 101.731 13.3726 92.7827 15.9292C83.8953 18.425 75.4036 21.9251 67.3076 26.4297C59.2725 30.9342 51.8156 36.291 44.937 42.5C38.0584 48.709 32.0929 55.4658 27.0405 62.7705C22.049 70.0143 18.1227 77.6842 15.2617 85.7803C12.4616 93.8763 11.0615 102.094 11.0615 110.434C11.0615 114.573 11.6094 118.347 12.7051 121.756C13.8617 125.104 15.5661 127.995 17.8184 130.43C20.0706 132.804 22.8403 134.661 26.1274 136C29.4754 137.278 33.3104 137.917 37.6323 137.917C44.8761 137.917 51.2069 136.578 56.6245 133.9C62.0422 131.161 66.8511 127.447 71.0513 122.76C75.3123 118.073 79.1473 112.625 82.5562 106.416C85.965 100.146 89.2826 93.4806 92.5088 86.4194C95.7959 79.3582 99.1439 72.084 102.553 64.5967C105.962 57.1094 109.827 49.7743 114.149 42.5913ZM139.715 78.293C138.802 77.6234 137.707 77.0146 136.428 76.4668C135.211 75.8581 133.932 75.3711 132.593 75.0059C131.254 74.5798 129.915 74.245 128.576 74.0015C127.236 73.758 126.08 73.6362 125.106 73.6362C123.402 73.6362 122.306 73.8493 121.819 74.2754C121.393 74.6406 121.18 74.9754 121.18 75.2798C121.18 75.8276 121.575 76.3146 122.367 76.7407C123.219 77.1668 124.254 77.5625 125.471 77.9277C126.75 78.2321 128.15 78.4756 129.671 78.6582C131.193 78.8408 132.685 78.9321 134.146 78.9321C134.815 78.9321 135.576 78.9017 136.428 78.8408C137.28 78.7799 138.376 78.5973 139.715 78.293Z"/>
</mask>
<path d="M150.49 4.69824C149.516 5.91569 148.572 7.1027 147.659 8.25928C146.807 9.35498 145.955 10.5116 145.103 11.729C151.251 13.9813 156.212 16.7814 159.986 20.1294C163.76 23.4165 166.682 26.8862 168.751 30.5386C170.821 34.13 172.191 37.6911 172.86 41.2217C173.591 44.6914 173.956 47.7046 173.956 50.2612C173.956 53.8527 173.347 57.292 172.13 60.5791C170.973 63.8053 169.391 66.7576 167.382 69.436C165.434 72.1144 163.151 74.458 160.534 76.4668C157.916 78.4147 155.177 79.9061 152.316 80.9409C158.221 85.8107 162.603 91.2284 165.464 97.1938C168.386 103.159 169.847 109.186 169.847 115.273C169.847 120.386 168.782 125.226 166.651 129.791C164.582 134.356 161.751 138.344 158.16 141.752C154.568 145.161 150.307 147.87 145.376 149.879C140.507 151.888 135.302 152.892 129.763 152.892C124.954 152.892 120.51 152.101 116.432 150.518C112.414 148.996 108.792 146.896 105.566 144.218C102.401 141.539 99.6309 138.374 97.2568 134.722C94.9437 131.069 93.1175 127.174 91.7783 123.034L96.3438 121.665C98.596 128.969 102.309 134.6 107.483 138.557C112.658 142.574 118.897 144.583 126.202 144.583C130.706 144.583 134.998 143.731 139.076 142.026C143.215 140.383 146.837 138.131 149.942 135.27C153.046 132.348 155.512 128.939 157.338 125.043C159.164 121.086 160.077 116.825 160.077 112.26C160.077 109.155 159.651 106.203 158.799 103.403C157.947 100.603 156.82 97.9548 155.42 95.459C154.02 92.9632 152.438 90.6805 150.672 88.6108C148.968 86.4803 147.203 84.5933 145.376 82.9497C143.733 83.2541 142.089 83.4976 140.446 83.6802C138.802 83.8628 137.189 83.9541 135.606 83.9541C133.415 83.9541 131.163 83.8019 128.85 83.4976C126.597 83.1323 124.528 82.6149 122.641 81.9453C120.814 81.2757 119.293 80.3931 118.075 79.2974C116.919 78.2017 116.34 76.8625 116.34 75.2798C116.34 74.9146 116.432 74.3971 116.614 73.7275C116.797 72.9971 117.162 72.297 117.71 71.6274C118.319 70.9578 119.201 70.3796 120.358 69.8926C121.514 69.3447 123.097 69.0708 125.106 69.0708C126.993 69.0708 128.88 69.2839 130.767 69.71C132.715 70.1361 134.572 70.7144 136.337 71.4448C138.102 72.1144 139.807 72.9058 141.45 73.8188C143.094 74.6711 144.585 75.5537 145.924 76.4668C148.116 75.4928 150.307 74.1841 152.499 72.5405C154.751 70.8361 156.79 68.7664 158.616 66.3315C160.442 63.8966 161.934 61.0965 163.09 57.9312C164.247 54.7658 164.825 51.2048 164.825 47.248C164.825 40.3086 162.908 34.0692 159.073 28.5298C155.238 22.9904 149.546 18.7598 141.998 15.8379C138.346 20.9512 134.937 26.034 131.771 31.0864C128.606 36.1388 125.654 41.1912 122.915 46.2437C120.175 51.2961 117.588 56.3485 115.153 61.4009C112.779 66.4533 110.497 71.5666 108.305 76.7407C103.253 88.55 98.3221 98.6548 93.5132 107.055C88.7043 115.395 83.5605 122.212 78.082 127.508C72.6644 132.804 66.7293 136.67 60.2769 139.104C53.8853 141.6 46.5501 142.848 38.2715 142.848C31.8799 142.848 26.3709 141.783 21.7446 139.652C17.1183 137.583 13.3138 134.722 10.3311 131.069C7.34831 127.417 5.12646 123.186 3.66553 118.377C2.26546 113.508 1.56543 108.333 1.56543 102.855C1.56543 96.7677 2.53939 90.4979 4.4873 84.0454C6.43522 77.5321 9.32666 71.0492 13.1616 64.5967C15.5965 60.5182 18.6097 56.2876 22.2012 51.9048C25.7926 47.4611 29.9015 43.1087 34.5278 38.8477C39.1541 34.5257 44.2979 30.4473 49.959 26.6123C55.681 22.7165 61.8291 19.3381 68.4033 16.4771C75.0384 13.5552 82.0996 11.242 89.5869 9.5376C97.1351 7.7723 105.079 6.88965 113.418 6.88965C118.532 6.88965 123.188 7.16357 127.389 7.71143C131.65 8.1984 135.576 8.92887 139.167 9.90283C140.568 8.50277 141.968 7.1027 143.368 5.70264C144.829 4.30257 146.32 2.90251 147.842 1.50244L150.49 4.69824ZM114.149 42.5913C117.375 37.2345 120.723 32.2126 124.193 27.5254C127.723 22.7773 131.498 18.2119 135.515 13.8291C133.202 13.2812 130.737 12.8551 128.119 12.5508C125.562 12.2464 122.854 12.0942 119.993 12.0942C110.801 12.0942 101.731 13.3726 92.7827 15.9292C83.8953 18.425 75.4036 21.9251 67.3076 26.4297C59.2725 30.9342 51.8156 36.291 44.937 42.5C38.0584 48.709 32.0929 55.4658 27.0405 62.7705C22.049 70.0143 18.1227 77.6842 15.2617 85.7803C12.4616 93.8763 11.0615 102.094 11.0615 110.434C11.0615 114.573 11.6094 118.347 12.7051 121.756C13.8617 125.104 15.5661 127.995 17.8184 130.43C20.0706 132.804 22.8403 134.661 26.1274 136C29.4754 137.278 33.3104 137.917 37.6323 137.917C44.8761 137.917 51.2069 136.578 56.6245 133.9C62.0422 131.161 66.8511 127.447 71.0513 122.76C75.3123 118.073 79.1473 112.625 82.5562 106.416C85.965 100.146 89.2826 93.4806 92.5088 86.4194C95.7959 79.3582 99.1439 72.084 102.553 64.5967C105.962 57.1094 109.827 49.7743 114.149 42.5913ZM139.715 78.293C138.802 77.6234 137.707 77.0146 136.428 76.4668C135.211 75.8581 133.932 75.3711 132.593 75.0059C131.254 74.5798 129.915 74.245 128.576 74.0015C127.236 73.758 126.08 73.6362 125.106 73.6362C123.402 73.6362 122.306 73.8493 121.819 74.2754C121.393 74.6406 121.18 74.9754 121.18 75.2798C121.18 75.8276 121.575 76.3146 122.367 76.7407C123.219 77.1668 124.254 77.5625 125.471 77.9277C126.75 78.2321 128.15 78.4756 129.671 78.6582C131.193 78.8408 132.685 78.9321 134.146 78.9321C134.815 78.9321 135.576 78.9017 136.428 78.8408C137.28 78.7799 138.376 78.5973 139.715 78.293Z" stroke="white" stroke-width="2" mask="url(#path-7-outside-2_11_13)"/>
</svg>
