<svg width="1927" height="558" viewBox="0 0 1927 558" fill="none" xmlns="http://www.w3.org/2000/svg">
<path d="M2 556C6.42112 537.542 20.6086 523.364 37.0478 509.202C62.1821 487.55 93.4085 471.3 130.876 463.256C172.006 454.425 215.216 457.293 257.695 457.293C347.62 457.293 437.425 460.591 527.35 460.168C565.238 459.99 603.39 458.878 640.649 453.513C680.429 447.784 719.519 437.974 758.21 429.289C835.189 412.007 909.064 389.044 980.399 361.887C1065.54 329.473 1137.78 282.754 1204.94 233.365C1273.42 183.004 1339.17 131.155 1411.04 83.2277C1449.66 57.4743 1491.27 32.0396 1538.52 14.9207C1570.31 3.40322 1605.43 1.25695 1640.43 2.19627C1655.66 2.60498 1669.31 6.53972 1683.41 10.5017C1707.97 17.4019 1731.41 25.71 1754.24 35.2051C1780.52 46.1309 1804.58 60.8029 1833.3 68.3205C1860.09 75.3331 1900.92 79.3859 1925 66.2974" stroke="white" stroke-width="3" stroke-linecap="round"/>
</svg>
