<svg width="2014" height="766" viewBox="0 0 2014 766" fill="none" xmlns="http://www.w3.org/2000/svg">
<path d="M2 764C6.62114 738.611 21.4505 719.11 38.6334 699.632C64.9048 669.85 97.544 647.499 136.707 636.435C179.697 624.289 224.863 628.233 269.263 628.233C363.256 628.233 457.124 632.769 551.117 632.187C590.72 631.942 630.598 630.414 669.542 623.034C711.123 615.154 751.981 601.661 792.422 589.715C872.884 565.945 950.102 534.36 1024.66 497.006C1113.66 452.423 1189.16 388.164 1259.36 320.231C1330.95 250.962 1399.66 179.647 1474.79 113.725C1515.15 78.3022 1558.65 43.3181 1608.03 19.7717C1641.26 3.93006 1677.97 0.977965 1714.55 2.26996C1730.47 2.83212 1744.75 8.24417 1759.48 13.6937C1785.15 23.1845 1809.65 34.612 1833.52 47.6721C1860.98 62.6999 1886.14 82.8805 1916.15 93.2206C1944.16 102.866 1986.83 108.441 2012 90.4379" stroke="white" stroke-width="3" stroke-linecap="round"/>
</svg>
