<svg width="2329" height="928" viewBox="0 0 2329 928" class="drawing-animation" fill="none" xmlns="http://www.w3.org/2000/svg">
<path d="M1.90332 926.45C7.25005 895.643 24.4078 871.98 44.2887 848.344C74.685 812.206 112.449 785.085 157.761 771.659C207.501 756.921 259.758 761.707 311.13 761.707C419.881 761.707 528.488 767.212 637.239 766.505C683.06 766.208 729.2 764.353 774.259 755.398C822.368 745.837 869.641 729.464 916.432 714.968C1009.53 686.125 1098.87 647.799 1185.14 602.473C1288.1 548.375 1375.47 470.401 1456.69 387.97C1539.51 303.917 1619.02 217.381 1705.94 137.389C1752.64 94.4068 1802.96 51.9561 1860.11 23.3844C1898.55 4.16169 1941.02 0.579539 1983.35 2.14728C2001.77 2.82941 2018.28 9.39654 2035.33 16.0092C2065.03 27.5255 2093.38 41.3919 2120.99 57.2394C2152.77 75.4745 2181.87 99.9622 2216.6 112.509C2249 124.213 2298.37 130.977 2327.5 109.133" stroke="white" stroke-width="3" stroke-linecap="round"/>
</svg>
